# xmcd
#
# Track frame offsets: 
#        150
#        11902
#        24092
#        33575
#        46350
#        80707
#        96355
#        110237
#        134210
#        145390
#        169245
#        182342
#        218580
#        240390
#        254575
#        268365
#        283895
#        294997
#        306765
#        321657
#
# Disc length: 4460 seconds
#
# Revision: 0
# Processed by: cddbd v1.5.2PL0 Copyright (c) Steve Scherf et al.
# Submitted via: ExactAudioCopy v0.95a5
#
DISCID=3d116a14
DTITLE=Various Artist - The Very Best Of Blues Guitar [CD1]
DYEAR=1995
DGENRE=
TTITLE0=Robert Johnson - If I Had Possession Over Judgement Day
TTITLE1=Muddy Waters - I Can't Be Satisfied
TTITLE2=Howlin' Wolf - Built For Comfort
TTITLE3=Robert Cray - Too Many Cooks
TTITLE4=B.B. King - Outside Help (live)
TTITLE5=Albert King - Born Under A Bad Sign
TTITLE6=Santana - Everyday I Have The Blues
TTITLE7=John Mayall - One Life TO Live
TTITLE8=Johnny Winter - Gangster Of Love
TTITLE9=Buddy Guy - Don't Know Which Way To Go (live)
TTITLE10=Roy Buchanan - Short Fuse (live)
TTITLE11=Jimi Hendrix - Red House (live)
TTITLE12=Muddy Waters - Twenty Four Hours
TTITLE13=Otis Rush - I Can't Quit You Baby
TTITLE14=The Yardbirds - Like Jimmy Reed Again
TTITLE15=Dave Kelly - New Death Matter
TTITLE16=Eric Clapton - Snake Drive
TTITLE17=John Lee Hooker - Boogie Chillun
TTITLE18=Elmore James - It Hurts Me Too
TTITLE19=Fleetwood Mac - Man Of The World
EXTD=
EXTT0=
EXTT1=
EXTT2=
EXTT3=
EXTT4=
EXTT5=
EXTT6=
EXTT7=
EXTT8=
EXTT9=
EXTT10=
EXTT11=
EXTT12=
EXTT13=
EXTT14=
EXTT15=
EXTT16=
EXTT17=
EXTT18=
EXTT19=
PLAYORDER=
